<?xml version='1.0' encoding='utf-8'?>
<!DOCTYPE svg>
<!-- Generator: Adobe Illustrator 15.1.0, SVG Export Plug-In . SVG Version: 6.00 Build 0)  -->
<svg xmlns="http://www.w3.org/2000/svg" viewBox="0 0 82.43 94.666" x="0px" id="Layer_1" y="0px" gorn="0" xml:space="preserve" enable-background="new 0 0 82.43 94.666" version="1.1" width="1.14486in" xmlns:xml="http://www.w3.org/XML/1998/namespace" height="1.31481in" >
    <desc >
        <referenceFile >2-CHANNEL-RELAY_SCHEMATIC_v2.svg</referenceFile>
    </desc>
    <metadata >
        <sfw >
            <slices />
            <sliceSourceBounds x="-0.141" y="-90.377" width="82.84" bottomLeftOrigin="true" height="83.286" />
        </sfw>
    </metadata>
    <rect stroke-linecap="round" x="7.408" id="part_symbol" y="7.542" gorn="0.2" fill="none" stroke="#010101" stroke-width="0.9002" width="67.74" height="79.292" />
    <g id="pins" gorn="0.3" >
        <line stroke-linecap="round" id="connector9pin" gorn="0.3.0" y1="25.232" y2="25.232" fill="none" stroke-linejoin="round" x1="0.209" stroke="#565656" stroke-width="0.7" x2="7.409" />
        <rect x="-0.1489000000000003" id="connector9terminal" y="25.2313" gorn="0.3.1" fill="none" stroke="none" stroke-width="0" width="0.0158" height="0.001400000000000006" />
        <line stroke-linecap="round" id="connector8pin" gorn="0.3.2" y1="18.032" y2="18.032" fill="none" stroke-linejoin="round" x1="0.209" stroke="#565656" stroke-width="0.7" x2="7.409" />
        <rect x="-0.1489000000000003" id="connector8terminal" y="18.0313" gorn="0.3.3" fill="none" stroke="none" stroke-width="0" width="0.0158" height="0.001400000000000006" />
        <g >
            <line stroke-linecap="round" id="connector16pin" gorn="0.3.4.0" y1="25.232" y2="25.232" fill="none" stroke-linejoin="round" x1="75.148" stroke="#565656" stroke-width="0.7" x2="82.348" />
            <rect x="82.69009999999999" id="connector16terminal" y="25.2313" gorn="0.3.4.1" fill="none" stroke="none" stroke-width="0" width="0.01579999999999998" height="0.001400000000000006" />
        </g>
        <g >
            <line stroke-linecap="round" id="connector15pin" gorn="0.3.5.0" y1="18.032" y2="18.036" fill="none" stroke-linejoin="round" x1="75.148" stroke="#565656" stroke-width="0.7" x2="82.348" />
            <rect x="82.6902940016213" id="connector15terminal" y="18.0332956112192" gorn="0.3.5.1" fill="none" stroke="none" stroke-width="0" width="0.01580077756160838" height="0.001408777561608432" />
        </g>
        <line stroke-linecap="round" id="connector11pin" gorn="0.3.6" y1="39.631" y2="39.631" fill="none" stroke-linejoin="round" x1="0.209" stroke="#565656" stroke-width="0.7" x2="7.409" />
        <rect x="-0.1489000000000003" id="connector11terminal" y="39.6303" gorn="0.3.7" fill="none" stroke="none" stroke-width="0" width="0.0158" height="0.001400000000000006" />
        <line stroke-linecap="round" id="connector10pin" gorn="0.3.8" y1="32.431" y2="32.431" fill="none" stroke-linejoin="round" x1="0.209" stroke="#565656" stroke-width="0.7" x2="7.409" />
        <rect x="-0.1489000000000003" id="connector10terminal" y="32.4303" gorn="0.3.9" fill="none" stroke="none" stroke-width="0" width="0.0158" height="0.001400000000000006" />
        <line stroke-linecap="round" id="connector12pin" gorn="0.3.10" y1="46.831" y2="46.831" fill="none" stroke-linejoin="round" x1="0.209" stroke="#565656" stroke-width="0.7" x2="7.409" />
        <rect x="-0.1489000000000003" id="connector12terminal" y="46.8303" gorn="0.3.11" fill="none" stroke="none" stroke-width="0" width="0.0158" height="0.001400000000000006" />
        <line stroke-linecap="round" id="connector18pin" gorn="0.3.12" y1="39.631" y2="39.631" fill="none" stroke-linejoin="round" x1="75.148" stroke="#565656" stroke-width="0.7" x2="82.349" />
        <rect x="82.69109899999999" id="connector18terminal" y="39.6303" gorn="0.3.13" fill="none" stroke="none" stroke-width="0" width="0.01580199999999999" height="0.001400000000000006" />
        <line stroke-linecap="round" id="connector17pin" gorn="0.3.14" y1="32.431" y2="32.431" fill="none" stroke-linejoin="round" x1="75.148" stroke="#565656" stroke-width="0.7" x2="82.349" />
        <rect x="82.69109899999999" id="connector17terminal" y="32.4303" gorn="0.3.15" fill="none" stroke="none" stroke-width="0" width="0.01580199999999999" height="0.001400000000000006" />
        <line stroke-linecap="round" id="connector19pin" gorn="0.3.16" y1="46.831" y2="46.831" fill="none" stroke-linejoin="round" x1="75.148" stroke="#565656" stroke-width="0.7" x2="82.349" />
        <rect x="82.69109899999999" id="connector19terminal" y="46.8303" gorn="0.3.17" fill="none" stroke="none" stroke-width="0" width="0.01580199999999999" height="0.001400000000000006" />
        <line stroke-linecap="round" id="connector20pin" gorn="0.3.18" y1="54.031" y2="54.031" fill="none" stroke-linejoin="round" x1="75.148" stroke="#565656" stroke-width="0.7" x2="82.349" />
        <rect x="82.69109899999999" id="connector20terminal" y="54.0303" gorn="0.3.19" fill="none" stroke="none" stroke-width="0" width="0.01580199999999999" height="0.001400000000000006" />
        <line stroke-linecap="round" id="connector13pin" gorn="0.3.20" y1="54.031" y2="54.031" fill="none" stroke-linejoin="round" x1="0.209" stroke="#565656" stroke-width="0.7" x2="7.409" />
        <rect x="-0.1489000000000003" id="connector13terminal" y="54.0303" gorn="0.3.21" fill="none" stroke="none" stroke-width="0" width="0.0158" height="0.001400000000000006" />
        <line stroke-linecap="round" id="connector14pin" gorn="0.3.22" y1="61.231" y2="61.231" fill="none" stroke-linejoin="round" x1="0.209" stroke="#565656" stroke-width="0.7" x2="7.409" />
        <rect x="-0.1489000000000003" id="connector14terminal" y="61.2303" gorn="0.3.23" fill="none" stroke="none" stroke-width="0" width="0.0158" height="0.001400000000000006" />
    </g>
    <g id="pin_numbers" gorn="0.4" >
        <g transform="matrix(1 0 0 1 78.3975 16.2939)" >
            <g >
                <g >
                    <text font-size="3" fill="#565656" font-family="DroidSans" >8</text>
                </g>
            </g>
        </g>
        <g transform="matrix(1 0 0 1 78.2275 23.5889)" >
            <g >
                <g >
                    <text font-size="3" fill="#565656" font-family="DroidSans" >9</text>
                </g>
            </g>
        </g>
        <g transform="matrix(1 0 0 1 2.9824 16.2002)" >
            <g >
                <g >
                    <text font-size="3" fill="#565656" font-family="DroidSans" >1</text>
                </g>
            </g>
        </g>
        <g transform="matrix(1 0 0 1 2.9824 23.3252)" >
            <g >
                <g >
                    <text font-size="3" fill="#565656" font-family="DroidSans" >2</text>
                </g>
            </g>
        </g>
        <g transform="matrix(1 0 0 1 77.5713 31.0264)" >
            <g >
                <g >
                    <text font-size="3" fill="#565656" font-family="DroidSans" >10</text>
                </g>
            </g>
        </g>
        <g transform="matrix(1 0 0 1 77.5713 38.4014)" >
            <g >
                <g >
                    <text font-size="3" fill="#565656" font-family="DroidSans" >11</text>
                </g>
            </g>
        </g>
        <g transform="matrix(1 0 0 1 77.4014 45.4014)" >
            <g >
                <g >
                    <text font-size="3" fill="#565656" font-family="DroidSans" >12</text>
                </g>
            </g>
        </g>
        <g transform="matrix(1 0 0 1 77.4014 52.7139)" >
            <g >
                <g >
                    <text font-size="3" fill="#565656" font-family="DroidSans" >13</text>
                </g>
            </g>
        </g>
        <g transform="matrix(1 0 0 1 2.9824 31.0264)" >
            <g >
                <g >
                    <text font-size="3" fill="#565656" font-family="DroidSans" >3</text>
                </g>
            </g>
        </g>
        <g transform="matrix(1 0 0 1 2.9824 38.4014)" >
            <g >
                <g >
                    <text font-size="3" fill="#565656" font-family="DroidSans" >4</text>
                </g>
            </g>
        </g>
        <g transform="matrix(1 0 0 1 2.9824 45.4795)" >
            <g >
                <g >
                    <text font-size="3" fill="#565656" font-family="DroidSans" >5</text>
                </g>
            </g>
        </g>
        <g transform="matrix(1 0 0 1 2.9824 52.6357)" >
            <g >
                <g >
                    <text font-size="3" fill="#565656" font-family="DroidSans" >6</text>
                </g>
            </g>
        </g>
        <g transform="matrix(1 0 0 1 2.9824 59.792)" >
            <g >
                <g >
                    <text font-size="3" fill="#565656" font-family="DroidSans" >7</text>
                </g>
            </g>
        </g>
    </g>
    <g id="pin_labels" gorn="0.5" >
        <g enable-background="new    " >
            <path fill="#565656"  d="M9.404,19.678c-0.075,0-0.14-0.005-0.196-0.014c-0.056-0.01-0.104-0.022-0.145-0.039v-0.352c0.05,0.014,0.104,0.024,0.16,0.032c0.058,0.008,0.119,0.012,0.185,0.012c0.055,0,0.109-0.007,0.164-0.021c0.055-0.014,0.104-0.039,0.149-0.076c0.044-0.036,0.081-0.087,0.108-0.151s0.042-0.146,0.042-0.246V15.61h0.411v3.169c0,0.153-0.022,0.287-0.065,0.399c-0.043,0.113-0.104,0.207-0.18,0.28c-0.077,0.074-0.169,0.129-0.277,0.165C9.653,19.66,9.534,19.678,9.404,19.678z"/>
            <path fill="#565656"  d="M13.491,17.187c0,0.271-0.035,0.509-0.105,0.713s-0.172,0.375-0.306,0.512s-0.297,0.24-0.491,0.309c-0.194,0.069-0.415,0.104-0.661,0.104h-0.804V15.61h0.894c0.224,0,0.427,0.034,0.609,0.102c0.181,0.067,0.336,0.167,0.463,0.3s0.226,0.297,0.295,0.493C13.457,16.701,13.491,16.929,13.491,17.187z M13.059,17.199c0-0.214-0.024-0.398-0.073-0.555s-0.119-0.284-0.211-0.386c-0.092-0.101-0.206-0.176-0.34-0.225c-0.135-0.05-0.288-0.074-0.459-0.074h-0.442v2.512h0.356c0.387,0,0.678-0.106,0.874-0.32S13.059,17.62,13.059,17.199z"/>
            <path fill="#565656"  d="M13.946,17.802v-0.369h1.09v0.369H13.946z"/>
            <path fill="#565656"  d="M17.334,15.61h0.436l-1.075,3.213h-0.411l-1.07-3.213h0.433l0.648,2.037c0.042,0.134,0.079,0.262,0.11,0.386s0.059,0.24,0.083,0.349c0.022-0.108,0.05-0.225,0.083-0.349s0.073-0.257,0.119-0.398L17.334,15.61z"/>
            <path fill="#565656"  d="M19.422,15.925c-0.157,0-0.299,0.03-0.426,0.089c-0.128,0.06-0.236,0.146-0.327,0.257c-0.09,0.111-0.16,0.246-0.208,0.406c-0.049,0.159-0.074,0.34-0.074,0.54c0,0.207,0.021,0.391,0.065,0.551c0.043,0.16,0.108,0.296,0.194,0.405s0.194,0.193,0.323,0.25c0.128,0.058,0.279,0.086,0.452,0.086c0.13,0,0.254-0.013,0.372-0.038s0.233-0.056,0.347-0.089v0.355c-0.057,0.022-0.114,0.042-0.171,0.059s-0.117,0.03-0.179,0.041c-0.062,0.01-0.129,0.018-0.2,0.022c-0.071,0.005-0.15,0.008-0.236,0.008c-0.24,0-0.448-0.04-0.624-0.118c-0.176-0.08-0.321-0.191-0.436-0.337c-0.115-0.145-0.201-0.319-0.256-0.522c-0.056-0.204-0.084-0.43-0.084-0.677c0-0.243,0.032-0.466,0.096-0.668c0.064-0.202,0.158-0.376,0.281-0.521c0.124-0.146,0.277-0.258,0.46-0.339c0.183-0.08,0.393-0.121,0.63-0.121c0.158,0,0.309,0.017,0.453,0.049c0.143,0.032,0.273,0.079,0.389,0.141l-0.171,0.343C20,16.05,19.899,16.01,19.791,15.976C19.683,15.942,19.56,15.925,19.422,15.925z"/>
            <path fill="#565656"  d="M22.046,15.925c-0.157,0-0.299,0.03-0.427,0.089c-0.127,0.06-0.236,0.146-0.326,0.257c-0.09,0.111-0.16,0.246-0.208,0.406c-0.049,0.159-0.074,0.34-0.074,0.54c0,0.207,0.021,0.391,0.065,0.551c0.043,0.16,0.108,0.296,0.194,0.405s0.194,0.193,0.323,0.25c0.129,0.058,0.28,0.086,0.453,0.086c0.13,0,0.254-0.013,0.371-0.038s0.233-0.056,0.347-0.089v0.355c-0.057,0.022-0.114,0.042-0.171,0.059s-0.117,0.03-0.179,0.041c-0.062,0.01-0.129,0.018-0.2,0.022c-0.071,0.005-0.15,0.008-0.236,0.008c-0.24,0-0.448-0.04-0.624-0.118c-0.176-0.08-0.321-0.191-0.436-0.337c-0.115-0.145-0.201-0.319-0.256-0.522c-0.056-0.204-0.083-0.43-0.083-0.677c0-0.243,0.032-0.466,0.095-0.668c0.064-0.202,0.158-0.376,0.281-0.521c0.124-0.146,0.277-0.258,0.46-0.339c0.183-0.08,0.394-0.121,0.631-0.121c0.158,0,0.309,0.017,0.452,0.049s0.273,0.079,0.389,0.141l-0.171,0.343c-0.092-0.047-0.193-0.087-0.301-0.121C22.306,15.942,22.183,15.925,22.046,15.925z"/>
        </g>
        <g enable-background="new    " >
            <path fill="#565656"  d="M11.547,22.913h0.436l-1.075,3.213h-0.411l-1.07-3.213h0.433l0.648,2.037c0.042,0.134,0.079,0.262,0.11,0.386s0.059,0.24,0.083,0.349c0.022-0.108,0.05-0.225,0.083-0.349s0.073-0.257,0.119-0.398L11.547,22.913z"/>
            <path fill="#565656"  d="M13.635,23.228c-0.157,0-0.299,0.03-0.426,0.089c-0.128,0.06-0.236,0.146-0.327,0.257c-0.09,0.111-0.16,0.246-0.208,0.406c-0.049,0.159-0.074,0.34-0.074,0.54c0,0.207,0.021,0.391,0.065,0.551c0.043,0.16,0.108,0.296,0.194,0.405s0.194,0.193,0.323,0.25c0.128,0.058,0.279,0.086,0.452,0.086c0.13,0,0.254-0.013,0.372-0.038s0.233-0.056,0.347-0.089v0.355c-0.057,0.022-0.114,0.042-0.171,0.059s-0.117,0.03-0.179,0.041c-0.062,0.01-0.129,0.018-0.2,0.022c-0.071,0.005-0.15,0.008-0.236,0.008c-0.24,0-0.448-0.04-0.624-0.118c-0.176-0.08-0.321-0.191-0.436-0.337c-0.115-0.145-0.201-0.319-0.256-0.522c-0.056-0.204-0.084-0.43-0.084-0.677c0-0.243,0.032-0.466,0.096-0.668c0.064-0.202,0.158-0.376,0.281-0.521c0.124-0.146,0.277-0.258,0.46-0.339c0.183-0.08,0.393-0.121,0.63-0.121c0.158,0,0.309,0.017,0.453,0.049c0.143,0.032,0.273,0.079,0.389,0.141l-0.171,0.343c-0.092-0.047-0.193-0.087-0.301-0.121C13.896,23.245,13.772,23.228,13.635,23.228z"/>
            <path fill="#565656"  d="M16.259,23.228c-0.157,0-0.299,0.03-0.427,0.089c-0.127,0.06-0.236,0.146-0.326,0.257c-0.09,0.111-0.16,0.246-0.208,0.406c-0.049,0.159-0.074,0.34-0.074,0.54c0,0.207,0.021,0.391,0.065,0.551c0.043,0.16,0.108,0.296,0.194,0.405s0.194,0.193,0.323,0.25c0.129,0.058,0.28,0.086,0.453,0.086c0.13,0,0.254-0.013,0.371-0.038s0.233-0.056,0.347-0.089v0.355c-0.057,0.022-0.114,0.042-0.171,0.059s-0.117,0.03-0.179,0.041c-0.062,0.01-0.129,0.018-0.2,0.022c-0.071,0.005-0.15,0.008-0.236,0.008c-0.24,0-0.448-0.04-0.624-0.118c-0.176-0.08-0.321-0.191-0.436-0.337c-0.115-0.145-0.201-0.319-0.256-0.522c-0.056-0.204-0.083-0.43-0.083-0.677c0-0.243,0.032-0.466,0.095-0.668c0.064-0.202,0.158-0.376,0.281-0.521c0.124-0.146,0.277-0.258,0.46-0.339c0.183-0.08,0.394-0.121,0.631-0.121c0.158,0,0.309,0.017,0.452,0.049s0.273,0.079,0.389,0.141l-0.171,0.343c-0.092-0.047-0.193-0.087-0.301-0.121C16.519,23.245,16.396,23.228,16.259,23.228z"/>
        </g>
        <g enable-background="new    " >
            <path fill="#565656"  d="M69.672,18.823h-0.473l-1.58-2.658h-0.018c0.009,0.112,0.016,0.225,0.021,0.336c0.006,0.095,0.012,0.194,0.015,0.299c0.004,0.104,0.006,0.197,0.006,0.281v1.742h-0.378V15.61h0.468l1.573,2.646h0.016c-0.005-0.111-0.01-0.222-0.016-0.33c-0.002-0.047-0.004-0.095-0.006-0.144c-0.002-0.05-0.004-0.099-0.006-0.147s-0.004-0.097-0.005-0.142c-0.001-0.046-0.001-0.087-0.001-0.126V15.61h0.383V18.823z"/>
            <path fill="#565656"  d="M71.851,15.925c-0.157,0-0.299,0.03-0.426,0.089c-0.128,0.06-0.236,0.146-0.327,0.257c-0.09,0.111-0.159,0.246-0.208,0.406c-0.05,0.159-0.073,0.34-0.073,0.54c0,0.207,0.021,0.391,0.064,0.551s0.107,0.296,0.194,0.405s0.194,0.193,0.323,0.25c0.129,0.058,0.279,0.086,0.452,0.086c0.13,0,0.255-0.013,0.372-0.038s0.232-0.056,0.347-0.089v0.355c-0.058,0.022-0.114,0.042-0.171,0.059c-0.058,0.017-0.117,0.03-0.18,0.041c-0.063,0.01-0.129,0.018-0.199,0.022c-0.072,0.005-0.15,0.008-0.236,0.008c-0.24,0-0.449-0.04-0.625-0.118c-0.176-0.08-0.32-0.191-0.436-0.337c-0.115-0.145-0.201-0.319-0.256-0.522c-0.057-0.204-0.084-0.43-0.084-0.677c0-0.243,0.032-0.466,0.096-0.668c0.064-0.202,0.158-0.376,0.281-0.521c0.124-0.146,0.277-0.258,0.461-0.339c0.183-0.08,0.393-0.121,0.63-0.121c0.158,0,0.31,0.017,0.453,0.049s0.272,0.079,0.389,0.141l-0.171,0.343c-0.093-0.047-0.193-0.087-0.302-0.121C72.111,15.942,71.988,15.925,71.851,15.925z"/>
        </g>
        <g enable-background="new    " >
            <path fill="#565656"  d="M64.686,23.228c-0.156,0-0.299,0.03-0.426,0.089c-0.128,0.06-0.236,0.146-0.326,0.257s-0.16,0.246-0.209,0.406c-0.049,0.159-0.074,0.34-0.074,0.54c0,0.207,0.021,0.391,0.065,0.551c0.043,0.16,0.108,0.296,0.194,0.405s0.193,0.193,0.323,0.25c0.128,0.058,0.279,0.086,0.452,0.086c0.131,0,0.254-0.013,0.371-0.038s0.233-0.056,0.348-0.089v0.355c-0.057,0.022-0.114,0.042-0.172,0.059c-0.057,0.017-0.116,0.03-0.179,0.041c-0.062,0.01-0.129,0.018-0.2,0.022c-0.07,0.005-0.149,0.008-0.236,0.008c-0.24,0-0.447-0.04-0.623-0.118c-0.176-0.08-0.322-0.191-0.437-0.337c-0.115-0.145-0.2-0.319-0.256-0.522c-0.056-0.204-0.084-0.43-0.084-0.677c0-0.243,0.032-0.466,0.096-0.668s0.157-0.376,0.281-0.521c0.124-0.146,0.277-0.258,0.46-0.339c0.184-0.08,0.394-0.121,0.631-0.121c0.158,0,0.309,0.017,0.453,0.049c0.143,0.032,0.273,0.079,0.389,0.141l-0.172,0.343c-0.092-0.047-0.192-0.087-0.301-0.121C64.946,23.245,64.823,23.228,64.686,23.228z"/>
            <path fill="#565656"  d="M68.628,24.516c0,0.247-0.029,0.473-0.089,0.677c-0.059,0.203-0.147,0.378-0.265,0.522c-0.117,0.146-0.263,0.257-0.437,0.337c-0.174,0.078-0.373,0.118-0.601,0.118c-0.239,0-0.446-0.04-0.62-0.118c-0.176-0.08-0.32-0.191-0.436-0.337c-0.115-0.145-0.201-0.319-0.256-0.523c-0.057-0.205-0.084-0.432-0.084-0.681s0.027-0.475,0.084-0.678c0.055-0.203,0.141-0.376,0.257-0.52s0.262-0.255,0.438-0.333s0.383-0.117,0.622-0.117c0.227,0,0.426,0.039,0.598,0.117c0.173,0.078,0.317,0.189,0.435,0.334s0.206,0.318,0.265,0.521C68.599,24.038,68.628,24.265,68.628,24.516z M66.275,24.516c0,0.2,0.019,0.381,0.057,0.541c0.038,0.161,0.096,0.297,0.175,0.409c0.078,0.112,0.178,0.197,0.299,0.257c0.12,0.06,0.265,0.089,0.432,0.089s0.312-0.029,0.432-0.089c0.121-0.06,0.221-0.145,0.299-0.257c0.079-0.112,0.136-0.248,0.173-0.409c0.036-0.16,0.055-0.341,0.055-0.541c0-0.202-0.019-0.383-0.055-0.543c-0.037-0.159-0.094-0.295-0.172-0.405s-0.176-0.195-0.297-0.255c-0.119-0.06-0.264-0.089-0.43-0.089c-0.168,0-0.313,0.029-0.434,0.089s-0.222,0.145-0.301,0.255s-0.138,0.246-0.176,0.405C66.294,24.133,66.275,24.313,66.275,24.516z"/>
            <path fill="#565656"  d="M70.672,26.126l-0.974-2.813h-0.018c0.009,0.108,0.017,0.216,0.022,0.323c0.006,0.092,0.01,0.189,0.014,0.291s0.006,0.194,0.006,0.278v1.92h-0.378v-3.213h0.606l0.905,2.619h0.013l0.91-2.619h0.606v3.213h-0.409v-1.949c0-0.076,0.002-0.163,0.005-0.262c0.003-0.098,0.007-0.191,0.011-0.281c0.006-0.104,0.011-0.209,0.016-0.316H71.99l-0.982,2.809H70.672z"/>
        </g>
        <g enable-background="new    " >
            <path fill="#565656"  d="M11.214,31.597h1.063v1.575c-0.081,0.026-0.162,0.05-0.244,0.07c-0.083,0.021-0.167,0.038-0.253,0.052s-0.177,0.024-0.272,0.032c-0.095,0.007-0.198,0.011-0.308,0.011c-0.23,0-0.434-0.038-0.611-0.115s-0.327-0.187-0.448-0.33c-0.122-0.143-0.214-0.316-0.277-0.521s-0.095-0.434-0.095-0.688c0-0.252,0.035-0.479,0.104-0.684c0.07-0.203,0.171-0.377,0.305-0.52c0.133-0.143,0.297-0.253,0.493-0.33c0.195-0.076,0.418-0.115,0.669-0.115c0.163,0,0.318,0.017,0.468,0.049s0.289,0.079,0.418,0.141l-0.158,0.355c-0.053-0.024-0.11-0.048-0.17-0.07c-0.061-0.021-0.124-0.041-0.188-0.058c-0.064-0.018-0.131-0.03-0.199-0.041c-0.068-0.01-0.136-0.016-0.204-0.016c-0.179,0-0.337,0.03-0.475,0.089c-0.138,0.06-0.253,0.146-0.346,0.257c-0.093,0.111-0.164,0.246-0.212,0.406c-0.049,0.159-0.073,0.34-0.073,0.54c0,0.19,0.02,0.365,0.061,0.523c0.04,0.158,0.104,0.294,0.192,0.408s0.202,0.203,0.341,0.267c0.139,0.063,0.307,0.094,0.503,0.094c0.064,0,0.124-0.002,0.177-0.005c0.053-0.004,0.103-0.009,0.148-0.015s0.088-0.013,0.129-0.021c0.04-0.009,0.079-0.016,0.117-0.023v-0.958h-0.657V31.597z"/>
            <path fill="#565656"  d="M15.444,33.293h-0.472l-1.58-2.658h-0.018c0.009,0.112,0.016,0.225,0.022,0.336c0.006,0.095,0.011,0.194,0.014,0.299c0.004,0.104,0.006,0.197,0.006,0.281v1.742h-0.378V30.08h0.468l1.573,2.646h0.016c-0.005-0.111-0.01-0.222-0.016-0.33c-0.001-0.047-0.003-0.095-0.005-0.144c-0.002-0.05-0.004-0.099-0.007-0.147c-0.002-0.049-0.003-0.097-0.004-0.142c0-0.046-0.001-0.087-0.001-0.126V30.08h0.382V33.293z"/>
            <path fill="#565656"  d="M18.685,31.656c0,0.271-0.035,0.509-0.105,0.713s-0.172,0.375-0.306,0.512s-0.297,0.24-0.491,0.309c-0.194,0.069-0.415,0.104-0.661,0.104h-0.804V30.08h0.894c0.224,0,0.427,0.034,0.609,0.102c0.181,0.067,0.336,0.167,0.463,0.3s0.226,0.297,0.295,0.493C18.65,31.171,18.685,31.398,18.685,31.656z M18.252,31.669c0-0.214-0.024-0.398-0.073-0.555s-0.119-0.284-0.211-0.386c-0.092-0.101-0.206-0.176-0.34-0.225c-0.135-0.05-0.288-0.074-0.459-0.074h-0.442v2.512h0.356c0.387,0,0.678-0.106,0.874-0.32S18.252,32.09,18.252,31.669z"/>
        </g>
        <g enable-background="new    " >
            <path fill="#565656"  d="M69.045,33.293h-0.472l-1.58-2.658h-0.018c0.009,0.112,0.017,0.225,0.022,0.336c0.006,0.095,0.01,0.194,0.014,0.299c0.004,0.104,0.006,0.197,0.006,0.281v1.742H66.64V30.08h0.468l1.573,2.646h0.016c-0.005-0.111-0.01-0.222-0.016-0.33c-0.001-0.047-0.003-0.095-0.005-0.144c-0.003-0.05-0.005-0.099-0.008-0.147c-0.002-0.049-0.003-0.097-0.004-0.142c0-0.046-0.001-0.087-0.001-0.126V30.08h0.382V33.293z"/>
            <path fill="#565656"  d="M72.543,31.683c0,0.247-0.029,0.473-0.089,0.677c-0.06,0.203-0.147,0.378-0.265,0.522c-0.117,0.146-0.263,0.257-0.436,0.337c-0.174,0.078-0.375,0.118-0.602,0.118c-0.238,0-0.445-0.04-0.621-0.118c-0.175-0.08-0.32-0.191-0.435-0.337c-0.115-0.145-0.2-0.319-0.256-0.523c-0.056-0.205-0.084-0.432-0.084-0.681s0.028-0.475,0.084-0.678s0.142-0.376,0.257-0.52s0.262-0.255,0.438-0.333s0.383-0.117,0.621-0.117c0.228,0,0.428,0.039,0.6,0.117s0.316,0.189,0.434,0.334s0.205,0.318,0.265,0.521C72.514,31.205,72.543,31.432,72.543,31.683z M70.189,31.683c0,0.2,0.02,0.381,0.058,0.541c0.038,0.161,0.097,0.297,0.175,0.409s0.178,0.197,0.299,0.257s0.265,0.089,0.432,0.089s0.311-0.029,0.432-0.089s0.221-0.145,0.299-0.257s0.136-0.248,0.173-0.409c0.036-0.16,0.055-0.341,0.055-0.541c0-0.202-0.019-0.383-0.055-0.543c-0.037-0.159-0.095-0.295-0.172-0.405s-0.177-0.195-0.296-0.255c-0.121-0.06-0.264-0.089-0.432-0.089c-0.166,0-0.311,0.029-0.433,0.089s-0.222,0.145-0.301,0.255s-0.138,0.246-0.176,0.405C70.209,31.3,70.189,31.48,70.189,31.683z"/>
        </g>
        <g enable-background="new    " >
            <path fill="#565656"  d="M69.672,40.625h-0.473l-1.58-2.658h-0.018c0.009,0.112,0.016,0.225,0.021,0.336c0.006,0.095,0.012,0.194,0.015,0.299c0.004,0.104,0.006,0.197,0.006,0.281v1.742h-0.378v-3.213h0.468l1.573,2.646h0.016c-0.005-0.111-0.01-0.222-0.016-0.33c-0.002-0.047-0.004-0.095-0.006-0.144c-0.002-0.05-0.004-0.099-0.006-0.147s-0.004-0.097-0.005-0.142c-0.001-0.046-0.001-0.087-0.001-0.126v-1.758h0.383V40.625z"/>
            <path fill="#565656"  d="M71.851,37.727c-0.157,0-0.299,0.03-0.426,0.089c-0.128,0.06-0.236,0.146-0.327,0.257c-0.09,0.111-0.159,0.246-0.208,0.406c-0.05,0.159-0.073,0.34-0.073,0.54c0,0.207,0.021,0.391,0.064,0.551s0.107,0.296,0.194,0.405s0.194,0.193,0.323,0.25c0.129,0.058,0.279,0.086,0.452,0.086c0.13,0,0.255-0.013,0.372-0.038s0.232-0.056,0.347-0.089v0.355c-0.058,0.022-0.114,0.042-0.171,0.059c-0.058,0.017-0.117,0.03-0.18,0.041c-0.063,0.01-0.129,0.018-0.199,0.022c-0.072,0.005-0.15,0.008-0.236,0.008c-0.24,0-0.449-0.04-0.625-0.118c-0.176-0.08-0.32-0.191-0.436-0.337c-0.115-0.145-0.201-0.319-0.256-0.522c-0.057-0.204-0.084-0.43-0.084-0.677c0-0.243,0.032-0.466,0.096-0.668c0.064-0.202,0.158-0.376,0.281-0.521c0.124-0.146,0.277-0.258,0.461-0.339c0.183-0.08,0.393-0.121,0.63-0.121c0.158,0,0.31,0.017,0.453,0.049s0.272,0.079,0.389,0.141l-0.171,0.343c-0.093-0.047-0.193-0.087-0.302-0.121C72.111,37.744,71.988,37.727,71.851,37.727z"/>
        </g>
        <g enable-background="new    " >
            <path fill="#565656"  d="M64.755,45.061c-0.157,0-0.299,0.03-0.426,0.089c-0.128,0.06-0.236,0.146-0.327,0.257c-0.09,0.111-0.159,0.246-0.208,0.406c-0.05,0.159-0.073,0.34-0.073,0.54c0,0.207,0.021,0.391,0.064,0.551s0.107,0.296,0.194,0.405s0.194,0.193,0.323,0.25c0.129,0.058,0.279,0.086,0.452,0.086c0.13,0,0.255-0.013,0.372-0.038s0.232-0.056,0.347-0.089v0.355c-0.058,0.022-0.114,0.042-0.171,0.059c-0.058,0.017-0.117,0.03-0.18,0.041c-0.063,0.01-0.129,0.018-0.199,0.022c-0.072,0.005-0.15,0.008-0.236,0.008c-0.24,0-0.449-0.04-0.625-0.118c-0.176-0.08-0.32-0.191-0.436-0.337c-0.115-0.145-0.201-0.319-0.256-0.522c-0.057-0.204-0.084-0.43-0.084-0.677c0-0.243,0.032-0.466,0.096-0.668c0.064-0.202,0.158-0.376,0.281-0.521c0.124-0.146,0.277-0.258,0.461-0.339c0.183-0.08,0.393-0.121,0.63-0.121c0.158,0,0.31,0.017,0.453,0.049s0.272,0.079,0.389,0.141l-0.171,0.343c-0.093-0.047-0.193-0.087-0.302-0.121C65.016,45.078,64.893,45.061,64.755,45.061z"/>
            <path fill="#565656"  d="M68.697,46.349c0,0.247-0.029,0.473-0.089,0.677c-0.06,0.203-0.147,0.378-0.265,0.522c-0.117,0.146-0.263,0.257-0.436,0.337c-0.174,0.078-0.375,0.118-0.602,0.118c-0.238,0-0.445-0.04-0.621-0.118c-0.175-0.08-0.32-0.191-0.435-0.337c-0.115-0.145-0.2-0.319-0.256-0.523c-0.056-0.205-0.084-0.432-0.084-0.681s0.028-0.475,0.084-0.678s0.142-0.376,0.257-0.52s0.262-0.255,0.438-0.333s0.383-0.117,0.621-0.117c0.228,0,0.428,0.039,0.6,0.117s0.316,0.189,0.434,0.334s0.205,0.318,0.265,0.521C68.668,45.871,68.697,46.098,68.697,46.349z M66.344,46.349c0,0.2,0.02,0.381,0.058,0.541c0.038,0.161,0.097,0.297,0.175,0.409s0.178,0.197,0.299,0.257s0.265,0.089,0.432,0.089s0.311-0.029,0.432-0.089s0.221-0.145,0.299-0.257s0.136-0.248,0.173-0.409c0.036-0.16,0.055-0.341,0.055-0.541c0-0.202-0.019-0.383-0.055-0.543c-0.037-0.159-0.095-0.295-0.172-0.405s-0.177-0.195-0.296-0.255c-0.121-0.06-0.264-0.089-0.432-0.089c-0.166,0-0.311,0.029-0.433,0.089s-0.222,0.145-0.301,0.255s-0.138,0.246-0.176,0.405C66.363,45.966,66.344,46.146,66.344,46.349z"/>
            <path fill="#565656"  d="M70.741,47.959l-0.974-2.813H69.75c0.009,0.108,0.016,0.216,0.021,0.323c0.006,0.092,0.012,0.189,0.015,0.291c0.004,0.102,0.006,0.194,0.006,0.278v1.92h-0.378v-3.213h0.606l0.905,2.619h0.013l0.91-2.619h0.606v3.213h-0.409V46.01c0-0.076,0.001-0.163,0.005-0.262c0.002-0.098,0.006-0.191,0.011-0.281c0.006-0.104,0.011-0.209,0.016-0.316H72.06l-0.982,2.809H70.741z"/>
        </g>
        <g enable-background="new    " >
            <path fill="#565656"  d="M69.045,55.126h-0.472l-1.58-2.658h-0.018c0.009,0.112,0.017,0.225,0.022,0.336c0.006,0.095,0.01,0.194,0.014,0.299c0.004,0.104,0.006,0.197,0.006,0.281v1.742H66.64v-3.213h0.468l1.573,2.646h0.016c-0.005-0.111-0.01-0.222-0.016-0.33c-0.001-0.047-0.003-0.095-0.005-0.144c-0.003-0.05-0.005-0.099-0.008-0.147c-0.002-0.049-0.003-0.097-0.004-0.142c0-0.046-0.001-0.087-0.001-0.126v-1.758h0.382V55.126z"/>
            <path fill="#565656"  d="M72.543,53.516c0,0.247-0.029,0.473-0.089,0.677c-0.06,0.203-0.147,0.378-0.265,0.522c-0.117,0.146-0.263,0.257-0.436,0.337c-0.174,0.078-0.375,0.118-0.602,0.118c-0.238,0-0.445-0.04-0.621-0.118c-0.175-0.08-0.32-0.191-0.435-0.337c-0.115-0.145-0.2-0.319-0.256-0.523c-0.056-0.205-0.084-0.432-0.084-0.681s0.028-0.475,0.084-0.678s0.142-0.376,0.257-0.52s0.262-0.255,0.438-0.333s0.383-0.117,0.621-0.117c0.228,0,0.428,0.039,0.6,0.117s0.316,0.189,0.434,0.334s0.205,0.318,0.265,0.521C72.514,53.038,72.543,53.265,72.543,53.516z M70.189,53.516c0,0.2,0.02,0.381,0.058,0.541c0.038,0.161,0.097,0.297,0.175,0.409s0.178,0.197,0.299,0.257s0.265,0.089,0.432,0.089s0.311-0.029,0.432-0.089s0.221-0.145,0.299-0.257s0.136-0.248,0.173-0.409c0.036-0.16,0.055-0.341,0.055-0.541c0-0.202-0.019-0.383-0.055-0.543c-0.037-0.159-0.095-0.295-0.172-0.405s-0.177-0.195-0.296-0.255c-0.121-0.06-0.264-0.089-0.432-0.089c-0.166,0-0.311,0.029-0.433,0.089s-0.222,0.145-0.301,0.255s-0.138,0.246-0.176,0.405C70.209,53.133,70.189,53.313,70.189,53.516z"/>
        </g>
        <g enable-background="new    " >
            <path fill="#565656"  d="M11.214,38.935h1.063v1.575c-0.081,0.026-0.162,0.05-0.244,0.07c-0.083,0.021-0.167,0.038-0.253,0.052s-0.177,0.024-0.272,0.032c-0.095,0.007-0.198,0.011-0.308,0.011c-0.23,0-0.434-0.038-0.611-0.115s-0.327-0.187-0.448-0.33c-0.122-0.143-0.214-0.316-0.277-0.521s-0.095-0.434-0.095-0.688c0-0.252,0.035-0.479,0.104-0.684c0.07-0.203,0.171-0.377,0.305-0.52c0.133-0.143,0.297-0.253,0.493-0.33c0.195-0.076,0.418-0.115,0.669-0.115c0.163,0,0.318,0.017,0.468,0.049s0.289,0.079,0.418,0.141l-0.158,0.355c-0.053-0.024-0.11-0.048-0.17-0.07c-0.061-0.021-0.124-0.041-0.188-0.058c-0.064-0.018-0.131-0.03-0.199-0.041c-0.068-0.01-0.136-0.016-0.204-0.016c-0.179,0-0.337,0.03-0.475,0.089c-0.138,0.06-0.253,0.146-0.346,0.257c-0.093,0.111-0.164,0.246-0.212,0.406c-0.049,0.159-0.073,0.34-0.073,0.54c0,0.19,0.02,0.365,0.061,0.523c0.04,0.158,0.104,0.294,0.192,0.408s0.202,0.203,0.341,0.267c0.139,0.063,0.307,0.094,0.503,0.094c0.064,0,0.124-0.002,0.177-0.005c0.053-0.004,0.103-0.009,0.148-0.015s0.088-0.013,0.129-0.021c0.04-0.009,0.079-0.016,0.117-0.023v-0.958h-0.657V38.935z"/>
            <path fill="#565656"  d="M15.444,40.631h-0.472l-1.58-2.658h-0.018c0.009,0.112,0.016,0.225,0.022,0.336c0.006,0.095,0.011,0.194,0.014,0.299c0.004,0.104,0.006,0.197,0.006,0.281v1.742h-0.378v-3.213h0.468l1.573,2.646h0.016c-0.005-0.111-0.01-0.222-0.016-0.33c-0.001-0.047-0.003-0.095-0.005-0.144c-0.002-0.05-0.004-0.099-0.007-0.147c-0.002-0.049-0.003-0.097-0.004-0.142c0-0.046-0.001-0.087-0.001-0.126v-1.758h0.382V40.631z"/>
            <path fill="#565656"  d="M18.685,38.994c0,0.271-0.035,0.509-0.105,0.713s-0.172,0.375-0.306,0.512s-0.297,0.24-0.491,0.309c-0.194,0.069-0.415,0.104-0.661,0.104h-0.804v-3.213h0.894c0.224,0,0.427,0.034,0.609,0.102c0.181,0.067,0.336,0.167,0.463,0.3s0.226,0.297,0.295,0.493C18.65,38.509,18.685,38.736,18.685,38.994z M18.252,39.007c0-0.214-0.024-0.398-0.073-0.555s-0.119-0.284-0.211-0.386c-0.092-0.101-0.206-0.176-0.34-0.225c-0.135-0.05-0.288-0.074-0.459-0.074h-0.442v2.512h0.356c0.387,0,0.678-0.106,0.874-0.32S18.252,39.428,18.252,39.007z"/>
        </g>
        <g enable-background="new    " >
            <path fill="#565656"  d="M10.841,47.831H9.676v-0.225l0.378-0.09v-2.584l-0.378-0.09v-0.225h1.165v0.225l-0.378,0.09v2.584l0.378,0.09V47.831z"/>
            <path fill="#565656"  d="M13.864,47.831h-0.473l-1.58-2.658h-0.018c0.009,0.112,0.016,0.225,0.022,0.336c0.006,0.095,0.011,0.194,0.014,0.299c0.004,0.104,0.005,0.197,0.005,0.281v1.742h-0.378v-3.213h0.468l1.573,2.646h0.015c-0.004-0.111-0.009-0.222-0.015-0.33c-0.001-0.047-0.003-0.095-0.005-0.144c-0.002-0.05-0.004-0.099-0.007-0.147c-0.002-0.049-0.003-0.097-0.004-0.142c0-0.046-0.001-0.087-0.001-0.126v-1.758h0.382V47.831z"/>
            <path fill="#565656"  d="M15.864,47.831h-0.387v-2.006c0-0.063,0-0.131,0.001-0.202c0-0.072,0.002-0.144,0.004-0.215c0.002-0.07,0.004-0.139,0.006-0.204c0.002-0.065,0.004-0.122,0.006-0.172c-0.025,0.025-0.047,0.049-0.066,0.067c-0.019,0.02-0.038,0.038-0.058,0.056c-0.02,0.018-0.041,0.036-0.063,0.056s-0.048,0.043-0.079,0.069l-0.325,0.266l-0.211-0.271l0.841-0.657h0.33V47.831z"/>
        </g>
        <g enable-background="new    " >
            <path fill="#565656"  d="M10.771,55.194H9.607V54.97l0.378-0.09v-2.584l-0.378-0.09v-0.225h1.165v0.225l-0.378,0.09v2.584l0.378,0.09V55.194z"/>
            <path fill="#565656"  d="M13.795,55.194h-0.473l-1.58-2.658h-0.018c0.009,0.112,0.016,0.225,0.022,0.336c0.006,0.095,0.011,0.194,0.014,0.299c0.004,0.104,0.005,0.197,0.005,0.281v1.742h-0.378v-3.213h0.468l1.573,2.646h0.015c-0.004-0.111-0.009-0.222-0.015-0.33c-0.001-0.047-0.003-0.095-0.005-0.144c-0.002-0.05-0.004-0.099-0.007-0.147c-0.002-0.049-0.003-0.097-0.004-0.142c0-0.046-0.001-0.087-0.001-0.126v-1.758h0.382V55.194z"/>
            <path fill="#565656"  d="M16.447,55.194h-2.004v-0.343l0.769-0.837c0.11-0.119,0.208-0.228,0.294-0.325c0.086-0.099,0.16-0.194,0.221-0.288c0.061-0.094,0.107-0.188,0.14-0.282s0.048-0.197,0.048-0.309c0-0.087-0.013-0.163-0.038-0.229c-0.025-0.066-0.06-0.122-0.106-0.168c-0.046-0.047-0.101-0.081-0.164-0.104s-0.133-0.035-0.211-0.035c-0.139,0-0.265,0.028-0.377,0.084c-0.112,0.057-0.218,0.129-0.32,0.217l-0.224-0.262c0.058-0.053,0.121-0.102,0.188-0.148c0.067-0.046,0.14-0.086,0.218-0.119c0.078-0.034,0.16-0.061,0.246-0.08c0.086-0.021,0.177-0.03,0.272-0.03c0.141,0,0.268,0.021,0.381,0.06c0.113,0.039,0.209,0.097,0.289,0.17c0.079,0.074,0.141,0.164,0.184,0.271c0.043,0.106,0.065,0.227,0.065,0.359c0,0.125-0.02,0.243-0.058,0.356c-0.039,0.112-0.092,0.224-0.161,0.332c-0.068,0.109-0.149,0.219-0.244,0.329c-0.095,0.109-0.197,0.224-0.307,0.343l-0.617,0.656v0.018h1.514V55.194z"/>
        </g>
        <g enable-background="new    " >
            <path fill="#565656"  d="M11.547,59.182h0.436l-1.075,3.213h-0.411l-1.07-3.213h0.433l0.648,2.037c0.042,0.134,0.079,0.262,0.11,0.386s0.059,0.24,0.083,0.349c0.022-0.108,0.05-0.225,0.083-0.349s0.073-0.257,0.119-0.398L11.547,59.182z"/>
            <path fill="#565656"  d="M13.635,59.496c-0.157,0-0.299,0.03-0.426,0.089c-0.128,0.06-0.236,0.146-0.327,0.257c-0.09,0.111-0.16,0.246-0.208,0.406c-0.049,0.159-0.074,0.34-0.074,0.54c0,0.207,0.021,0.391,0.065,0.551c0.043,0.16,0.108,0.296,0.194,0.405s0.194,0.193,0.323,0.25c0.128,0.058,0.279,0.086,0.452,0.086c0.13,0,0.254-0.013,0.372-0.038s0.233-0.056,0.347-0.089v0.355c-0.057,0.022-0.114,0.042-0.171,0.059s-0.117,0.03-0.179,0.041c-0.062,0.01-0.129,0.018-0.2,0.022c-0.071,0.005-0.15,0.008-0.236,0.008c-0.24,0-0.448-0.04-0.624-0.118c-0.176-0.08-0.321-0.191-0.436-0.337c-0.115-0.145-0.201-0.319-0.256-0.522c-0.056-0.204-0.084-0.43-0.084-0.677c0-0.243,0.032-0.466,0.096-0.668c0.064-0.202,0.158-0.376,0.281-0.521c0.124-0.146,0.277-0.258,0.46-0.339c0.183-0.08,0.393-0.121,0.63-0.121c0.158,0,0.309,0.017,0.453,0.049c0.143,0.032,0.273,0.079,0.389,0.141l-0.171,0.343c-0.092-0.047-0.193-0.087-0.301-0.121C13.896,59.514,13.772,59.496,13.635,59.496z"/>
            <path fill="#565656"  d="M16.259,59.496c-0.157,0-0.299,0.03-0.427,0.089c-0.127,0.06-0.236,0.146-0.326,0.257c-0.09,0.111-0.16,0.246-0.208,0.406c-0.049,0.159-0.074,0.34-0.074,0.54c0,0.207,0.021,0.391,0.065,0.551c0.043,0.16,0.108,0.296,0.194,0.405s0.194,0.193,0.323,0.25c0.129,0.058,0.28,0.086,0.453,0.086c0.13,0,0.254-0.013,0.371-0.038s0.233-0.056,0.347-0.089v0.355c-0.057,0.022-0.114,0.042-0.171,0.059s-0.117,0.03-0.179,0.041c-0.062,0.01-0.129,0.018-0.2,0.022c-0.071,0.005-0.15,0.008-0.236,0.008c-0.24,0-0.448-0.04-0.624-0.118c-0.176-0.08-0.321-0.191-0.436-0.337c-0.115-0.145-0.201-0.319-0.256-0.522c-0.056-0.204-0.083-0.43-0.083-0.677c0-0.243,0.032-0.466,0.095-0.668c0.064-0.202,0.158-0.376,0.281-0.521c0.124-0.146,0.277-0.258,0.46-0.339c0.183-0.08,0.394-0.121,0.631-0.121c0.158,0,0.309,0.017,0.452,0.049s0.273,0.079,0.389,0.141l-0.171,0.343c-0.092-0.047-0.193-0.087-0.301-0.121C16.519,59.514,16.396,59.496,16.259,59.496z"/>
        </g>
    </g>
    <g transform="matrix(1 0 0 1 23.2588 69.0088)" >
        <g >
            <g >
                <g enable-background="new    " >
                    <text x="0" font-size="8" y="0" fill="#010101" font-family="DroidSans" >2 Channel</text>
                    <text x="-3.967" font-size="8" y="9.6" fill="#010101" font-family="DroidSans" >Power Relay</text>
                </g>
            </g>
        </g>
    </g>
    <line stroke-miterlimit="10" y1="15.543" y2="33.293" fill="none" x1="59.5" stroke="#565656" x2="59.5" stroke-width="1" />
    <g transform="matrix(0 -1 1 0 57.1299 26.9609)" >
        <g >
            <g >
                <text font-size="4.5" fill="#565656" font-family="DroidSans" >K1</text>
            </g>
        </g>
    </g>
    <line stroke-miterlimit="10" y1="37.376" y2="55.126" fill="none" x1="59.5" stroke="#565656" x2="59.5" stroke-width="1" />
    <g transform="matrix(0 -1 1 0 57.1299 48.7939)" >
        <g >
            <g >
                <text font-size="4.5" fill="#565656" font-family="DroidSans" >K2</text>
            </g>
        </g>
    </g>
</svg>
